<?xml version="1.0" standalone="no"?><!DOCTYPE svg PUBLIC "-//W3C//DTD SVG 1.1//EN" "http://www.w3.org/Graphics/SVG/1.1/DTD/svg11.dtd"><svg t="1681641934032" class="icon" viewBox="0 0 1024 1024" version="1.1" xmlns="http://www.w3.org/2000/svg" p-id="2677" xmlns:xlink="http://www.w3.org/1999/xlink" width="200" height="200"><path d="M659.968 680.853333a407.424 407.424 0 0 1 271.402667-32.170666V407.530667c0-90.282667-72-166.016-166.357334-174.506667-168-15.189333-337.109333-15.189333-505.109333 0-94.357333 8.490667-166.357333 84.224-166.357333 174.506667v15.253333c7.338667-0.234667 14.677333-0.448 22.058666-0.448 219.562667 0 415.530667 100.757333 544.362667 258.517333" fill="#CCCCCC" p-id="2678"></path><path d="M259.584 871.957333c68.992 6.229333 138.197333 9.770667 207.424 10.88a410.645333 410.645333 0 0 1 192.96-201.770666c-128.938667-157.888-325.056-258.730667-544.810667-258.730667-7.381333 0-14.72 0.213333-22.058666 0.426667v274.517333c0 90.368 72.042667 166.165333 166.485333 174.677333" fill="#529E90" p-id="2679"></path><path d="M659.968 680.853333a410.389333 410.389333 0 0 0-192.810667 201.6c99.392 1.6 198.826667-1.92 297.856-10.858666 94.357333-8.533333 166.357333-84.266667 166.357334-174.528v-48.384a407.424 407.424 0 0 0-271.402667 32.170666" fill="#60B2A3" p-id="2680"></path><path d="M859.52 296.746667a145.472 145.472 0 1 1-290.944-0.042667 145.472 145.472 0 0 1 290.922667 0.021333" fill="#DD8983" p-id="2681"></path></svg>